<?xml version="1.0" standalone="no"?>
<!DOCTYPE svg PUBLIC "-//W3C//DTD SVG 1.1//EN" "http://www.w3.org/Graphics/SVG/1.1/DTD/svg11.dtd" >
<svg xmlns="http://www.w3.org/2000/svg" xmlns:xlink="http://www.w3.org/1999/xlink" version="1.1">
<metadata></metadata>
<defs>
<font id="gt_walsheimregular" horiz-adv-x="1157" >
<font-face units-per-em="2048" ascent="1622" descent="-426" />
<missing-glyph horiz-adv-x="518" />
<glyph horiz-adv-x="0" />
<glyph horiz-adv-x="682" />
<glyph horiz-adv-x="0" />
<glyph horiz-adv-x="0" />
<glyph unicode="&#xd;" horiz-adv-x="512" />
<glyph unicode=" "  horiz-adv-x="518" />
<glyph unicode="&#x09;" horiz-adv-x="518" />
<glyph unicode="&#xa0;" horiz-adv-x="518" />
<glyph unicode="!" horiz-adv-x="606" d="M154 123q0 62 43 104.5t106 42.5q60 0 105 -43.5t45 -103.5q0 -61 -44.5 -106.5t-105.5 -45.5q-63 0 -106 45.5t-43 106.5zM207 436v1006h192v-1006h-192z" />
<glyph unicode="&#x22;" horiz-adv-x="724" d="M123 1272v196h168v-196l-39 -318h-88zM434 1272v196h168v-196l-39 -318h-90z" />
<glyph unicode="#" horiz-adv-x="1126" d="M59 428v139h215l41 299h-194v140h215l59 428h148l-60 -428h258l60 428h147l-59 -428h178v-140h-199l-41 -299h179v-139h-199l-59 -428h-146l60 428h-261l-59 -428h-145l59 428h-197zM422 567h258l41 299h-258z" />
<glyph unicode="$" horiz-adv-x="1280" d="M152 457h186q0 -145 89 -233.5t232 -88.5q129 0 208 67t79 183q0 35 -9 65t-22 52t-36 41.5t-43 32t-52 25.5t-53.5 20t-56.5 18q-89 27 -148 48.5t-126 58.5t-106 78.5t-65 105t-26 141.5q0 161 98.5 261t263.5 126v217h166v-217q165 -27 266.5 -141t102.5 -289h-187 q-4 129 -74.5 199.5t-193.5 70.5q-112 0 -184 -58t-72 -161q0 -53 20.5 -93t61.5 -68t81.5 -45.5t102.5 -36.5q187 -62 262 -102q167 -89 204 -237q12 -47 12 -102q0 -173 -110 -286.5t-292 -135.5v-215h-166v217q-184 24 -298.5 153t-114.5 329z" />
<glyph unicode="%" horiz-adv-x="1884" d="M131 901v277q0 113 80 191.5t207 78.5q131 0 210 -79t79 -195v-277q0 -113 -80.5 -191.5t-208.5 -78.5q-127 0 -207 80t-80 194zM276 901q0 -63 40 -106t104 -43t102.5 43.5t38.5 105.5v273q0 63 -38.5 107t-102.5 44t-104 -44.5t-40 -106.5v-273zM406 -12l894 1542 l144 -82l-897 -1542zM1178 258v277q0 114 78.5 192t207.5 78q130 0 209.5 -79.5t79.5 -195.5v-276q0 -113 -80.5 -191.5t-208.5 -78.5t-207 80t-79 194zM1323 258q0 -63 40 -106t103 -43q64 0 103 43t39 106v272q0 62 -39.5 107t-102.5 45q-64 0 -103.5 -44t-39.5 -108v-272 z" />
<glyph unicode="&#x26;" horiz-adv-x="1226" d="M96 412q0 124 63 203.5t191 132.5q-223 87 -223 315q0 118 61 209t161.5 137.5t221.5 46.5q197 0 322 -119.5t125 -308.5h-187q0 121 -66.5 190.5t-197.5 69.5q-115 0 -183.5 -57t-68.5 -168q0 -103 65 -167.5t208 -64.5h30v-165h-30q-151 0 -228 -73t-77 -185 q0 -120 84 -191.5t206 -71.5q141 0 221 93.5t80 240.5h-167v166h477v-166h-123q0 -227 -138 -364.5t-345 -137.5q-128 0 -237 52.5t-177 153.5t-68 229z" />
<glyph unicode="'" horiz-adv-x="413" d="M123 1272v196h168v-196l-39 -318h-88z" />
<glyph unicode="(" horiz-adv-x="753" d="M209 -8v1147q0 132 59.5 242.5t172 177.5t255.5 67v-168q-134 0 -217.5 -92t-83.5 -227v-1147q0 -134 84 -227t217 -93v-168q-143 0 -255.5 67t-172 178t-59.5 243z" />
<glyph unicode=")" horiz-adv-x="753" d="M57 -328q135 0 218 93t83 227v1147q0 135 -83 227t-218 92v168q143 0 256 -67t172.5 -177.5t59.5 -242.5v-1147q0 -132 -59.5 -243t-172.5 -178t-256 -67v168z" />
<glyph unicode="*" horiz-adv-x="937" d="M82 1145l37 110l293 -98v311h114v-311l293 98l37 -110l-297 -94l186 -250l-96 -68l-180 252l-180 -252l-96 68l186 250z" />
<glyph unicode="+" horiz-adv-x="1177" d="M180 504v158h320v331h178v-331h319v-158h-319v-328h-178v328h-320z" />
<glyph unicode="," horiz-adv-x="552" d="M119 131q0 60 41.5 102.5t107.5 42.5q76 0 122 -58t46 -169q0 -146 -83 -216.5t-224 -70.5v88q92 0 135 48.5t43 105.5q-16 -16 -53 -16q-59 0 -97 41.5t-38 101.5z" />
<glyph unicode="-" horiz-adv-x="602" d="M61 504v160h480v-160h-480z" />
<glyph unicode="." horiz-adv-x="522" d="M119 133q0 59 41.5 101t99.5 42t102 -42t44 -101q0 -58 -43.5 -100.5t-102.5 -42.5t-100 41t-41 102z" />
<glyph unicode="/" horiz-adv-x="892" d="M10 -76l746 1733l162 -70l-746 -1732z" />
<glyph unicode="0" horiz-adv-x="1185" d="M102 463v508q0 132 59.5 242.5t173 177.5t257.5 67q145 0 258.5 -67t173 -177.5t59.5 -242.5v-508q0 -131 -60 -242t-173.5 -178.5t-257.5 -67.5q-109 0 -201.5 39.5t-155 106t-98 155.5t-35.5 187zM289 463q0 -133 85 -226.5t218 -93.5q136 0 220.5 93.5t84.5 226.5v508 q0 135 -84.5 227t-220.5 92q-134 0 -218.5 -92t-84.5 -227v-508z" />
<glyph unicode="1" horiz-adv-x="706" d="M63 1047v149q77 0 130 8.5t88 25t54 46.5t26.5 66.5t7.5 91.5h178v-1434h-193v1047h-291z" />
<glyph unicode="2" horiz-adv-x="1079" d="M96 0q0 98 9.5 179t26.5 143.5t45 115t58.5 91t75.5 73t87.5 60t101.5 53.5q120 61 153 83q136 90 150 221q2 18 2 36q0 113 -67.5 173t-180.5 60q-125 0 -199.5 -72t-74.5 -208h-187q0 137 62.5 240t167.5 155.5t235 52.5q190 0 310 -110.5t120 -292.5q0 -57 -14 -109.5 t-35 -92t-55.5 -78t-64 -63.5t-74 -53.5t-71.5 -43t-69 -36.5q-3 -1 -4 -2q-97 -52 -151.5 -90.5t-88.5 -86t-44.5 -98.5t-10.5 -132h682v-168h-895z" />
<glyph unicode="3" horiz-adv-x="1144" d="M68 453h186q0 -140 86.5 -224t222.5 -84q129 0 205 74t76 193q0 110 -73.5 182t-217.5 72h-102v165h102q132 0 196 64t64 168q0 112 -67 168.5t-187 56.5q-131 0 -196.5 -69.5t-65.5 -190.5h-188q0 189 124 308.5t320 119.5q191 0 318.5 -107.5t127.5 -283.5 q0 -120 -61 -203.5t-160 -113.5q115 -35 184.5 -124.5t69.5 -220.5q0 -187 -137.5 -306.5t-337.5 -119.5q-101 0 -189.5 33t-155.5 92.5t-105.5 150.5t-38.5 200z" />
<glyph unicode="4" horiz-adv-x="1130" d="M139 461v973h187v-805h346v442h186v-442h215v-168h-215v-461h-186v461h-533z" />
<glyph unicode="5" horiz-adv-x="1224" d="M137 465h187q0 -133 83.5 -226.5t219.5 -93.5t219.5 93.5t83.5 228.5q0 131 -84.5 223t-220.5 92q-187 0 -269 -172h-190v824h844v-168h-676v-480q46 84 137.5 124t196.5 40q134 0 238 -66.5t158 -174.5t54 -236q0 -136 -60 -248.5t-173 -180t-258 -67.5 q-109 0 -201.5 39.5t-155 106t-98 155.5t-35.5 187z" />
<glyph unicode="6" horiz-adv-x="1138" d="M76 463q0 152 84 287l428 684h215l-328 -504q30 24 94 24q139 0 251 -65.5t174.5 -177.5t62.5 -246q0 -131 -60 -242t-174 -178.5t-258 -67.5q-145 0 -258 67t-172 177t-59 242zM262 465q0 -132 84 -226t219 -94q136 0 220.5 93.5t84.5 226.5t-86 226t-219 93 q-134 0 -218.5 -92.5t-84.5 -226.5z" />
<glyph unicode="7" horiz-adv-x="956" d="M78 1266v168h889l-637 -1434h-199l569 1266h-622z" />
<glyph unicode="8" horiz-adv-x="1187" d="M113 403q0 121 61 218t176 129q-72 25 -120 76t-67.5 109.5t-19.5 125.5q0 168 123 281.5t328 113.5t327.5 -114.5t122.5 -282.5q0 -104 -51.5 -189t-154.5 -120q77 -20 132.5 -76t80 -126t24.5 -147q0 -86 -33.5 -163t-94 -135t-152 -92t-201.5 -34q-219 0 -350 122.5 t-131 303.5zM299 403q0 -109 81 -183.5t214 -74.5q134 0 214.5 74.5t80.5 183.5t-79.5 184t-215.5 75q-137 0 -216 -74t-79 -185zM332 1049q0 -100 71.5 -168t190.5 -68q122 0 192 69t70 169t-71.5 168.5t-190.5 68.5t-190.5 -67.5t-71.5 -171.5z" />
<glyph unicode="9" horiz-adv-x="1138" d="M82 967q0 134 60 245t173 177.5t258 66.5q144 0 257.5 -66.5t173 -176.5t59.5 -240q0 -147 -86 -289l-426 -684h-215l328 504q-23 -23 -78 -23q-220 0 -362 139t-142 347zM268 969q0 -135 84.5 -227.5t220.5 -92.5q135 0 219.5 92.5t84.5 227.5t-84.5 227t-219.5 92 q-136 0 -220.5 -92t-84.5 -227z" />
<glyph unicode=":" horiz-adv-x="522" d="M119 131q0 59 41 102t100 43t102.5 -43.5t43.5 -101.5t-43.5 -100.5t-102.5 -42.5q-58 0 -99.5 42t-41.5 101zM119 817q0 59 41.5 101.5t99.5 42.5q59 0 102.5 -43t43.5 -101t-43.5 -100.5t-102.5 -42.5t-100 41t-41 102z" />
<glyph unicode=";" horiz-adv-x="538" d="M119 131q0 60 41.5 102.5t107.5 42.5q76 0 122 -58t46 -169q0 -146 -83 -216.5t-224 -70.5v88q92 0 135 48.5t43 105.5q-16 -16 -53 -16q-59 0 -97 41.5t-38 101.5zM119 817q0 59 41.5 101.5t99.5 42.5q59 0 102.5 -43t43.5 -101t-43.5 -100.5t-102.5 -42.5 q-58 0 -99.5 42t-41.5 101z" />
<glyph unicode="&#x3c;" horiz-adv-x="1177" d="M70 516v129l1038 371v-170l-776 -264l776 -267v-168z" />
<glyph unicode="=" horiz-adv-x="1177" d="M176 336v160h828v-160h-828zM176 668v157h828v-157h-828z" />
<glyph unicode="&#x3e;" horiz-adv-x="1177" d="M70 147v168l776 267l-776 264v170l1038 -371v-129z" />
<glyph unicode="?" horiz-adv-x="1032" d="M47 1010q0 205 130.5 326.5t328.5 121.5q188 0 312 -107t124 -284q0 -43 -9 -83.5t-19.5 -69t-34.5 -61t-36.5 -48.5t-44.5 -43t-40 -33t-39 -29q-56 -42 -83 -67t-49 -61t-28 -77.5t-6 -109.5h-180q0 146 40.5 232t139.5 157q37 27 57.5 42.5t52.5 46t49 57t30.5 65 t13.5 80.5q0 108 -69.5 166.5t-180.5 58.5q-125 0 -199 -72.5t-74 -207.5h-186zM315 123q0 62 42.5 104.5t105.5 42.5t107 -43t44 -104t-44.5 -106.5t-106.5 -45.5t-105 45t-43 107z" />
<glyph unicode="@" horiz-adv-x="1748" d="M53 432q0 124 30.5 240.5t97.5 223.5t165 186.5t243 127t320 47.5q180 0 326.5 -49t255.5 -145.5t169 -250.5t60 -355q0 -248 -88 -393.5t-252 -145.5q-107 0 -179.5 59t-72.5 150v37q-41 -78 -117 -120t-175 -42q-171 0 -287.5 124.5t-116.5 295.5q0 112 52 208.5 t146 155t208 58.5q98 0 174.5 -43.5t115.5 -118.5v143h150v-579q0 -93 32 -142t87 -49q79 0 125.5 103t46.5 282q0 142 -32.5 256t-91 193t-142 132t-182 77t-214.5 24q-149 0 -270 -41t-200 -108.5t-132.5 -158t-76.5 -186t-23 -196.5q0 -113 29 -215.5t90 -191.5 t148 -154.5t210 -103t270 -37.5q131 0 280 31.5t279 103.5l72 -117q-146 -82 -314 -118t-317 -36q-175 0 -323 45t-253 123.5t-178.5 185t-109 229t-35.5 255.5zM584 422q0 -120 74.5 -202.5t195.5 -82.5q123 0 198.5 82.5t75.5 202.5t-77 203.5t-197 83.5t-195 -83.5 t-75 -203.5z" />
<glyph unicode="A" horiz-adv-x="1144" d="M10 0l494 1434h135l496 -1434h-197l-76 219h-581l-74 -219h-197zM338 389h467l-232 739z" />
<glyph unicode="B" horiz-adv-x="1210" d="M160 0v1434h489q99 0 177.5 -26t126 -66.5t78.5 -95t42.5 -106t11.5 -104.5q0 -130 -71.5 -213t-165.5 -100q42 -9 83.5 -32.5t79.5 -61.5t61.5 -97t23.5 -129q0 -53 -12 -105t-43.5 -107t-79 -96.5t-125.5 -68t-177 -26.5h-499zM346 168h313q54 0 98 15t71.5 38.5 t46.5 55t26.5 62.5t7.5 62q0 41 -14 81.5t-41.5 76.5t-76.5 58t-113 22h-318v-471zM346 809h307q66 0 116 21t77 56t40 72.5t13 77.5q0 39 -13 77t-40 73.5t-78 57.5t-119 22h-303v-457z" />
<glyph unicode="C" horiz-adv-x="1587" d="M84 719q0 148 50 282.5t142 238t234.5 165t314.5 61.5q142 0 262.5 -41.5t206 -114t140 -169.5t73.5 -209h-196q-33 164 -159 265t-321 101q-128 0 -235 -48.5t-176.5 -129t-107.5 -184.5t-38 -217q0 -157 70 -290t200 -213.5t294 -80.5q172 0 294.5 85.5t170.5 221.5 h204q-37 -133 -126 -238.5t-233 -171t-319 -65.5q-167 0 -308.5 60.5t-236 163.5t-147.5 239.5t-53 288.5z" />
<glyph unicode="D" horiz-adv-x="1427" d="M160 0v1434h442q138 0 259 -40t208.5 -109t151 -160t94.5 -195t31 -213t-31 -213t-94.5 -195t-151 -160t-208.5 -109t-259 -40h-442zM346 168h256q128 0 234 47t174 124.5t105.5 175t37.5 202.5q0 104 -37.5 202t-106 175t-174.5 124t-233 48h-256v-1098z" />
<glyph unicode="E" horiz-adv-x="1114" d="M160 0v1434h805v-168h-619v-469h619v-168h-619v-461h619v-168h-805z" />
<glyph unicode="F" horiz-adv-x="1101" d="M160 0v1434h805v-168h-619v-512h619v-168h-619v-586h-186z" />
<glyph unicode="G" horiz-adv-x="1712" d="M84 711q0 149 51.5 285.5t144 241t231 166.5t302.5 62q242 0 410 -123.5t196 -308.5h-188q-29 113 -142 188.5t-272 75.5q-123 0 -227 -48.5t-172 -129.5t-106 -186.5t-38 -220.5q0 -113 36.5 -216t105 -184t177.5 -129.5t243 -48.5q205 0 325 106t146 281h-338v168h690 v-168h-154q-41 -253 -218.5 -404t-457.5 -151q-141 0 -262.5 40.5t-209 111t-150 165t-93 203t-30.5 224.5z" />
<glyph unicode="H" horiz-adv-x="1359" d="M160 0v1434h186v-637h668v637h186v-1434h-186v629h-668v-629h-186z" />
<glyph unicode="I" horiz-adv-x="512" d="M160 0v1434h192v-1434h-192z" />
<glyph unicode="J" horiz-adv-x="1097" d="M29 455h186q0 -142 76.5 -231t204.5 -89q127 0 198.5 86.5t71.5 233.5v979h186v-979q0 -215 -123 -351.5t-333 -136.5q-213 0 -340 137.5t-127 350.5z" />
<glyph unicode="K" horiz-adv-x="1208" d="M160 0v1434h186v-652l602 652h236l-656 -717l656 -717h-236l-602 651v-651h-186z" />
<glyph unicode="L" horiz-adv-x="870" d="M160 0v1434h186v-1266h469v-168h-655z" />
<glyph unicode="M" horiz-adv-x="1662" d="M160 0v1434h180l491 -1147l492 1147h180v-1434h-188v999l-412 -999h-143l-414 999v-999h-186z" />
<glyph unicode="N" horiz-adv-x="1357" d="M160 0v1434h207l645 -1108v1108h186v-1434h-207l-645 1108v-1108h-186z" />
<glyph unicode="O" horiz-adv-x="1644" d="M84 717q0 146 52 281t145 239.5t234 166.5t308 62t308.5 -62.5t234.5 -166.5t145 -239t52 -281t-52 -280.5t-145 -239.5t-234 -167.5t-307 -62.5q-168 0 -309.5 62.5t-234.5 167t-145 239.5t-52 281zM279 717q0 -112 38.5 -217t107 -186t172.5 -130t226 -49t226 49 t172.5 130t106.5 185.5t38 217.5q0 153 -64.5 284.5t-190.5 214t-288 82.5q-122 0 -226 -48.5t-172.5 -129.5t-107 -185.5t-38.5 -217.5z" />
<glyph unicode="P" horiz-adv-x="1220" d="M160 0v1434h504q144 0 257.5 -67.5t173.5 -178.5t60 -242q0 -132 -60 -243t-173.5 -178.5t-257.5 -67.5h-318v-457h-186zM346 627h318q136 0 220.5 92t84.5 227q0 132 -85 226t-220 94h-318v-639z" />
<glyph unicode="Q" horiz-adv-x="1644" d="M84 717q0 146 52 281t145 239.5t234 166.5t308 62t308.5 -62.5t234.5 -166.5t145 -239t52 -281q0 -169 -66 -317.5t-189 -254.5t-284 -147l127 -178q-33 -15 -95 -46.5t-71 -35.5l-164 229q-167 0 -308 62.5t-233.5 167t-144 239.5t-51.5 281zM279 717q0 -112 38.5 -217 t107 -186t172.5 -130t226 -49t226 49t172.5 130t106.5 185.5t38 217.5q0 153 -64.5 284.5t-190.5 214t-288 82.5q-122 0 -226 -48.5t-172.5 -129.5t-107 -185.5t-38.5 -217.5z" />
<glyph unicode="R" horiz-adv-x="1241" d="M160 0v1434h504q144 0 257.5 -67.5t173.5 -178.5t60 -242q0 -158 -86 -283t-231 -176l301 -487h-213l-285 457h-295v-457h-186zM346 627h318q136 0 220.5 92t84.5 227q0 132 -85 226t-220 94h-318v-639z" />
<glyph unicode="S" horiz-adv-x="1169" d="M92 457h187q0 -147 87.5 -234.5t235.5 -87.5q128 0 206.5 65t78.5 181q0 41 -10 74.5t-32 58.5t-44 43.5t-58 34.5t-62 25t-67 22q-65 21 -105 34.5t-96 36.5t-89.5 44.5t-72 54t-59.5 68.5t-35 84.5t-14 105.5q0 124 60.5 216t159 137.5t221.5 45.5q202 0 329 -121 t127 -317h-186q-3 129 -72.5 199.5t-195.5 70.5q-114 0 -185 -58t-71 -161q0 -53 20.5 -93t61.5 -68t81.5 -45.5t102.5 -36.5q79 -26 119.5 -41t107 -44.5t102.5 -59t75 -72.5t56 -99t17 -125q0 -130 -64.5 -228.5t-172.5 -149t-242 -50.5q-220 0 -361 133t-141 357z" />
<glyph unicode="T" horiz-adv-x="978" d="M25 1266v168h929v-168h-372v-1266h-187v1266h-370z" />
<glyph unicode="U" horiz-adv-x="1288" d="M145 465v969h187v-969q0 -137 86.5 -233.5t224.5 -96.5t225.5 95.5t87.5 234.5v969h187v-969q0 -135 -61 -248t-176.5 -181.5t-262.5 -68.5t-262 68t-175.5 181t-60.5 249z" />
<glyph unicode="V" horiz-adv-x="1153" d="M8 1434h197l373 -1127l370 1127h197l-500 -1434h-135z" />
<glyph unicode="W" horiz-adv-x="1974" d="M12 1434h197l360 -1110l349 1110h141l348 -1110l360 1110h197l-491 -1434h-138l-348 1110l-346 -1110h-139z" />
<glyph unicode="X" horiz-adv-x="1122" d="M20 0l435 717l-435 717h211l330 -555l330 555h213l-436 -717l436 -717h-213l-330 555l-330 -555h-211z" />
<glyph unicode="Y" horiz-adv-x="1193" d="M20 1434h218l419 -670l338 670h205l-721 -1434h-205l287 569z" />
<glyph unicode="Z" d="M29 0l796 1266h-753v168h1067l-797 -1266h803v-168h-1116z" />
<glyph unicode="[" horiz-adv-x="686" d="M160 -479v2107h403v-160h-225v-1790h225v-157h-403z" />
<glyph unicode="\" horiz-adv-x="892" d="M-10 1587l162 70l745 -1733l-162 -69z" />
<glyph unicode="]" horiz-adv-x="686" d="M123 -322h225v1788h-225v160h403v-2105h-403v157z" />
<glyph unicode="^" horiz-adv-x="1306" d="M123 662l463 874h127l471 -874h-201l-332 651l-334 -651h-194z" />
<glyph unicode="_" horiz-adv-x="1146" d="M61 -102h1024v-125h-1024v125z" />
<glyph unicode="`" horiz-adv-x="1013" d="M182 1360l86 139l510 -280l-86 -140z" />
<glyph unicode="a" horiz-adv-x="1222" d="M84 465q0 129 59.5 241t167 180t238.5 68q118 0 206 -50t132 -134v160h176v-930h-176v162q-45 -84 -131.5 -134.5t-204.5 -50.5q-99 0 -186.5 39.5t-148.5 106t-96.5 156t-35.5 186.5zM260 465q0 -137 87 -232.5t226 -95.5t226.5 95.5t87.5 232.5q0 136 -87.5 233 t-226.5 97t-226 -97t-87 -233z" />
<glyph unicode="b" horiz-adv-x="1226" d="M160 0v1434h178v-664q45 83 131.5 133.5t202.5 50.5q130 0 238.5 -66.5t169.5 -177.5t61 -241q0 -131 -59 -243t-168 -180.5t-242 -68.5q-117 0 -203 50.5t-131 134.5v-162h-178zM338 465q0 -138 87.5 -233t225.5 -95q140 0 226 96t86 232q0 137 -86 233.5t-226 96.5 q-138 0 -225.5 -96.5t-87.5 -233.5z" />
<glyph unicode="c" horiz-adv-x="1083" d="M88 465q0 96 30 183t87 156t149 109.5t207 40.5q101 0 182 -30.5t132 -82t80.5 -115t35.5 -134.5h-178q-11 90 -73.5 146.5t-174.5 56.5q-99 0 -168.5 -47t-100 -119.5t-30.5 -163.5t30.5 -163t100.5 -118.5t172 -46.5q108 0 164.5 46.5t81.5 135.5h178 q-22 -147 -132.5 -244.5t-297.5 -97.5q-117 0 -209.5 40.5t-149.5 109.5t-86.5 155t-29.5 183z" />
<glyph unicode="d" horiz-adv-x="1222" d="M84 465q0 129 59.5 241t167 180t238.5 68q118 0 206 -50t132 -134v664h176v-1434h-176v162q-45 -84 -131.5 -134.5t-204.5 -50.5q-99 0 -186.5 39.5t-148.5 106t-96.5 156t-35.5 186.5zM260 465q0 -137 87 -232.5t226 -95.5t226.5 95.5t87.5 232.5q0 136 -87.5 233 t-226.5 97t-226 -97t-87 -233z" />
<glyph unicode="e" horiz-adv-x="1075" d="M88 469q0 211 123.5 348t325.5 137q191 0 315.5 -120.5t124.5 -298.5q0 -66 -8 -117h-699q0 -126 70.5 -208.5t210.5 -82.5q181 0 237 147h181q-25 -124 -137 -210.5t-281 -86.5q-113 0 -203 40.5t-146 109.5t-85 156.5t-29 185.5zM272 553h533q0 114 -73.5 182 t-190.5 68q-114 0 -189.5 -65t-79.5 -185z" />
<glyph unicode="f" horiz-adv-x="710" d="M43 780v150h201v162q0 69 12 125t31 92.5t47 63t53.5 40t58.5 21.5t55 10t48 2q91 0 139 -25v-151q-53 16 -113 16q-32 0 -53.5 -4.5t-47 -20.5t-39 -54t-13.5 -97v-180h266v-150h-266v-780h-178v780h-201z" />
<glyph unicode="g" horiz-adv-x="1218" d="M84 465q0 129 59.5 241t167 180t238.5 68q118 0 206 -50t132 -134v160h176v-989q0 -122 -34.5 -212.5t-99 -145t-150.5 -81t-195 -26.5q-103 0 -185.5 23.5t-136 62t-90 92t-54 109t-22.5 118.5h180q8 -109 81 -178.5t221 -69.5q145 0 227 75t82 233v221 q-45 -84 -131.5 -134.5t-204.5 -50.5q-99 0 -186.5 39.5t-148.5 106t-96.5 156t-35.5 186.5zM260 465q0 -137 87.5 -232.5t225.5 -95.5q139 0 226.5 95.5t87.5 232.5q0 136 -87.5 233t-226.5 97t-226 -97t-87 -233z" />
<glyph unicode="h" d="M160 0v1434h178v-668q42 89 126 138.5t204 49.5q166 0 257 -100t91 -305v-549h-178v494q0 139 -56 221t-178 82q-86 0 -148 -46.5t-90 -117t-28 -154.5v-479h-178z" />
<glyph unicode="i" horiz-adv-x="565" d="M139 1282q0 59 42 102t102 43q58 0 100.5 -43t42.5 -102q0 -58 -42 -99.5t-101 -41.5q-58 0 -101 41t-43 100zM195 0v930h176v-930h-176z" />
<glyph unicode="j" horiz-adv-x="561" d="M10 -348q58 -17 86 -17q99 0 99 125v1170h176v-1180q0 -272 -215 -272q-34 0 -79 7t-67 17v150zM139 1282q0 59 42 102t102 43q58 0 100.5 -43t42.5 -102q0 -58 -42 -99.5t-101 -41.5q-58 0 -101 41t-43 100z" />
<glyph unicode="k" horiz-adv-x="976" d="M160 0v1434h178v-928l389 424h225l-424 -465l424 -465h-225l-389 422v-422h-178z" />
<glyph unicode="l" horiz-adv-x="497" d="M160 0v1434h178v-1434h-178z" />
<glyph unicode="m" horiz-adv-x="1687" d="M160 0v930h178v-166q32 86 103 138t182 52q113 0 188 -52.5t100 -145.5q34 86 113 142t201 56q82 0 144 -28t99 -78.5t55.5 -115.5t18.5 -144v-588h-178v535q0 129 -50 195.5t-147 66.5q-107 0 -167 -81.5t-60 -242.5v-473h-178v524q0 273 -193 273q-108 0 -169.5 -81.5 t-61.5 -242.5v-473h-178z" />
<glyph unicode="n" d="M160 0v930h178v-164q42 89 126 138.5t204 49.5q166 0 257 -100t91 -305v-549h-178v494q0 139 -56 221t-178 82q-86 0 -148 -46.5t-90 -117t-28 -154.5v-479h-178z" />
<glyph unicode="o" horiz-adv-x="1146" d="M84 465q0 132 59.5 243t172.5 178.5t257 67.5q143 0 256.5 -67.5t173.5 -178.5t60 -243q0 -98 -35.5 -187t-98 -155.5t-155 -106t-201.5 -39.5q-144 0 -257 67.5t-172.5 178t-59.5 242.5zM260 465q0 -137 87 -232.5t226 -95.5t226.5 95.5t87.5 232.5q0 136 -87.5 233 t-226.5 97t-226 -97t-87 -233z" />
<glyph unicode="p" horiz-adv-x="1226" d="M160 -504v1434h178v-160q45 83 131.5 133.5t202.5 50.5q130 0 238.5 -66.5t169.5 -177.5t61 -241q0 -131 -59 -243t-168 -180.5t-242 -68.5q-117 0 -203 50.5t-131 134.5v-666h-178zM338 465q0 -138 87.5 -233t225.5 -95q140 0 226 96t86 232q0 137 -86 233.5t-226 96.5 q-138 0 -225.5 -96.5t-87.5 -233.5z" />
<glyph unicode="q" horiz-adv-x="1226" d="M86 465q0 129 59.5 241t167 180t238.5 68q119 0 206.5 -49.5t131.5 -134.5v160h178v-1434h-178v666q-45 -84 -130.5 -134.5t-203.5 -50.5q-100 0 -188 40t-149 106.5t-96.5 155.5t-35.5 186zM264 465q0 -135 86.5 -231.5t224.5 -96.5t226 95t88 233t-88 234t-226 96 q-140 0 -225.5 -96.5t-85.5 -233.5z" />
<glyph unicode="r" horiz-adv-x="747" d="M160 0v930h178v-182q37 87 123 141.5t188 54.5q46 0 86 -14v-164q-49 10 -82 10q-159 0 -237 -98.5t-78 -269.5v-408h-178z" />
<glyph unicode="s" horiz-adv-x="925" d="M82 313h174q0 -194 221 -194q87 0 136 32.5t49 98.5q0 18 -4.5 33t-11.5 26t-23 21.5t-29.5 18t-41.5 17.5t-50 17t-63 20t-72 23q-46 15 -78.5 28t-67.5 35t-56.5 47t-35.5 62.5t-14 83.5q0 132 97 202t241 70q160 0 264 -87.5t104 -225.5h-172q0 82 -48 126t-140 44 q-78 0 -126 -32.5t-48 -92.5q0 -40 29.5 -67.5t65 -41t122.5 -38.5q33 -10 51 -15q35 -12 51 -17.5t47.5 -18t48 -23t41 -26.5t37 -33t26.5 -39.5t19.5 -50.5t5.5 -60q0 -134 -100 -206.5t-256 -72.5q-173 0 -283 86.5t-110 249.5z" />
<glyph unicode="t" horiz-adv-x="696" d="M41 780v150h172v313h178v-313h242v-150h-242v-428q0 -65 10.5 -107t33.5 -62t47.5 -26.5t62.5 -6.5q67 0 121 8v-158q-105 -12 -162 -12q-29 0 -52.5 2t-55 9.5t-55.5 20.5t-49 37.5t-41.5 57.5t-27 84t-10.5 114v467h-172z" />
<glyph unicode="u" d="M141 381v549h178v-492q0 -140 55.5 -221.5t176.5 -81.5q130 0 199 91t69 227v477h178v-930h-178v166q-42 -89 -127 -139t-205 -50q-186 0 -276 121q-39 51 -54.5 117t-15.5 166z" />
<glyph unicode="v" horiz-adv-x="987" d="M8 930h193l291 -676l294 676h193l-426 -930h-123z" />
<glyph unicode="w" horiz-adv-x="1503" d="M8 930h191l231 -656l234 656h176l231 -656l234 656h190l-360 -930h-123l-260 735l-260 -735h-123z" />
<glyph unicode="x" horiz-adv-x="901" d="M33 0l315 469l-311 461h205l209 -324l208 324h205l-311 -461l315 -469h-204l-213 330l-213 -330h-205z" />
<glyph unicode="y" horiz-adv-x="1173" d="M143 -121h174q5 -117 65.5 -181.5t197.5 -64.5q135 0 198.5 70.5t63.5 230.5v232q-94 -189 -332 -189q-178 0 -262 99.5t-84 310.5v543h178v-488q0 -69 11.5 -122.5t37 -96.5t71.5 -65.5t111 -22.5q133 0 201 90t68 228v477h178v-996q0 -236 -115.5 -347t-322.5 -111 q-217 0 -326.5 110.5t-112.5 292.5z" />
<glyph unicode="z" horiz-adv-x="888" d="M49 0l498 772h-481v158h782l-498 -770h500v-160h-801z" />
<glyph unicode="{" horiz-adv-x="860" d="M139 475v148q37 0 78.5 17t76 60t34.5 103v538q0 69 25 125.5t66 90t89.5 51.5t99.5 18h135v-135h-94q-73 0 -108 -50t-35 -126v-535q0 -56 -20.5 -101t-52 -70.5t-62 -39.5t-58.5 -18q193 -47 193 -248v-471q0 -76 35.5 -126t107.5 -50h94v-135h-135q-51 0 -99.5 17.5 t-89.5 51.5t-66 90t-25 125v476q0 51 -20 90.5t-50.5 61t-61 32t-57.5 10.5z" />
<glyph unicode="|" horiz-adv-x="497" d="M160 -479v2105h178v-2105h-178z" />
<glyph unicode="}" horiz-adv-x="860" d="M119 -344h92q72 0 107.5 51.5t35.5 124.5v471q0 201 193 248q-28 4 -58.5 18t-62 39.5t-52 70.5t-20.5 101v535q0 76 -34.5 126t-108.5 50h-92v135h135q50 0 98.5 -18t90 -51.5t67 -90t25.5 -125.5v-538q0 -46 19.5 -82.5t49.5 -56.5t61 -30.5t58 -10.5v-148 q-28 0 -58.5 -10.5t-60.5 -32t-49.5 -61t-19.5 -90.5v-476q0 -69 -25.5 -125t-67 -90t-90 -51.5t-98.5 -17.5h-135v135z" />
<glyph unicode="~" horiz-adv-x="1060" d="M76 438v158q89 111 221 111q61 0 154 -35t180 -70t133 -35q106 0 219 113v-156q-93 -116 -229 -116q-51 0 -101.5 17t-122.5 54q-140 68 -233 68q-66 0 -117.5 -28.5t-103.5 -80.5z" />
<glyph unicode="&#xa1;" horiz-adv-x="606" d="M162 1313q0 59 42 101t101 42t102.5 -42.5t43.5 -100.5q0 -59 -43 -102.5t-103 -43.5t-101.5 43t-41.5 103zM209 -6v999h194v-999h-194z" />
<glyph unicode="&#xa2;" horiz-adv-x="1155" d="M117 641q0 117 42.5 218t130.5 173.5t208 91.5v224h168v-222q85 -12 152.5 -46.5t109 -83.5t64 -106t26.5 -120h-178q-8 89 -71 146t-177 57q-76 0 -134 -27t-93 -73.5t-52.5 -105t-17.5 -126.5q0 -141 76 -233.5t227 -92.5q107 0 164 47t82 136h178 q-22 -134 -111.5 -225.5t-244.5 -110.5v-221h-168v223q-180 27 -280.5 162t-100.5 315z" />
<glyph unicode="&#xa3;" horiz-adv-x="1204" d="M80 688v168h139v193q0 177 130 292t319 115q198 0 324 -126t126 -322h-186q0 123 -69 200.5t-197 77.5q-115 0 -184.5 -60t-71.5 -151l-2 -219h340v-168h-340v-96q0 -154 -17.5 -270.5t-50.5 -153.5h664v-168h-877v141q92 89 92 451v96h-139z" />
<glyph unicode="&#xa4;" horiz-adv-x="1531" d="M197 334l139 139q-88 122 -88 285q0 162 88 284l-139 140l112 112l137 -139q126 92 289 92q160 0 291 -90l137 137l113 -112l-137 -138q90 -129 90 -286q0 -161 -90 -287l135 -137l-111 -113l-137 137q-128 -88 -291 -88q-158 0 -286 88l-140 -137zM426 758 q0 -136 86 -232t225 -96q138 0 226 95t88 233t-88 233.5t-226 95.5t-224.5 -96.5t-86.5 -232.5z" />
<glyph unicode="&#xa5;" horiz-adv-x="1214" d="M-45 1434h217l438 -676l432 676h215l-530 -832h299v-149h-332v-146h332v-149h-332v-158h-170v158h-325v149h325v146h-325v149h293z" />
<glyph unicode="&#xa6;" horiz-adv-x="497" d="M160 473h178v-952h-178v952zM160 672v954h178v-954h-178z" />
<glyph unicode="&#xa7;" horiz-adv-x="1187" d="M90 555q0 116 63 197.5t173 109.5q-77 49 -116.5 123t-39.5 162q0 110 62 194.5t162.5 128t221.5 43.5q203 0 332 -116t129 -299h-188q0 114 -74.5 186t-200.5 72q-109 0 -182.5 -53.5t-73.5 -151.5q0 -43 16 -77t37.5 -56t62.5 -42t71.5 -31t83.5 -27 q74 -22 123.5 -39.5t110.5 -43t99.5 -53.5t73.5 -64.5t51.5 -83t16.5 -102.5q0 -116 -70.5 -206.5t-161.5 -108.5q164 -98 164 -283q0 -113 -61 -197t-160.5 -125.5t-222.5 -41.5q-210 0 -344.5 118.5t-134.5 305.5h188q0 -119 78.5 -193.5t214.5 -74.5q110 0 182 50t72 150 q0 41 -15 74.5t-37.5 56t-62.5 43.5t-76 34t-92 30q-201 65 -276 103q-150 76 -186 194q-13 43 -13 94zM281 571q0 -68 40 -112t132 -76l247 -84q87 3 151 62.5t64 150.5q0 66 -38 105t-125 71l-254 90q-98 -4 -157.5 -63t-59.5 -144z" />
<glyph unicode="&#xa8;" horiz-adv-x="1138" d="M184 1315q0 59 40 99t98 40q57 0 97 -40.5t40 -98.5q0 -57 -40 -96t-97 -39t-97.5 39t-40.5 96zM655 1315q0 59 39 99t97 40q59 0 99 -40t40 -99q0 -57 -40 -96t-99 -39q-56 0 -96 38.5t-40 96.5z" />
<glyph unicode="&#xa9;" horiz-adv-x="1650" d="M86 717q0 150 52.5 286t146.5 239.5t234.5 164.5t305.5 61q134 0 252 -40.5t206 -112t152.5 -166t97 -205t32.5 -227.5q0 -116 -32 -226.5t-96 -205.5t-152 -166.5t-206.5 -112.5t-253.5 -41q-134 0 -252.5 40.5t-206.5 112t-151.5 166.5t-96 205.5t-32.5 227.5zM252 717 q0 -95 25 -185t74.5 -167.5t117.5 -136.5t160 -92.5t196 -33.5q103 0 195 33.5t160.5 92.5t118 136.5t75 168t25.5 184.5q0 119 -40.5 229.5t-113 196t-182 137t-238.5 51.5t-239 -51.5t-182 -137t-112 -196t-40 -229.5zM379 719q0 90 30.5 171.5t87 146t144.5 103t195 38.5 q175 0 284 -95t131 -235h-137q-22 89 -96 149t-187 60q-147 0 -231 -99t-84 -239q0 -142 88.5 -242t231.5 -100q99 0 172 48t102 122h141q-34 -127 -144.5 -209t-270.5 -82q-136 0 -242 65t-160.5 169.5t-54.5 228.5z" />
<glyph unicode="&#xaa;" horiz-adv-x="1222" d="M84 465q0 129 59.5 241t167 180t238.5 68q118 0 206 -50t132 -134v160h176v-930h-176v162q-45 -84 -131.5 -134.5t-204.5 -50.5q-99 0 -186.5 39.5t-148.5 106t-96.5 156t-35.5 186.5zM260 465q0 -137 87 -232.5t226 -95.5t226.5 95.5t87.5 232.5q0 136 -87.5 233 t-226.5 97t-226 -97t-87 -233z" />
<glyph unicode="&#xab;" horiz-adv-x="966" d="M82 543v108l401 342v-176l-258 -221l258 -221v-174zM483 543v108l402 342v-176l-258 -221l258 -221v-174z" />
<glyph unicode="&#xac;" horiz-adv-x="1177" d="M176 623v159h828v-465h-179v306h-649z" />
<glyph unicode="&#xad;" horiz-adv-x="602" d="M61 504v160h480v-160h-480z" />
<glyph unicode="&#xae;" horiz-adv-x="1654" d="M86 717q0 150 53 286.5t147 239.5t235 164t306 61q167 0 308.5 -62.5t235.5 -166.5t146 -239.5t52 -282.5q0 -146 -51.5 -281t-145 -240t-235.5 -168t-310 -63q-135 0 -253.5 40.5t-207 112t-152 166.5t-96 205.5t-32.5 227.5zM252 717q0 -119 40 -229t112.5 -196.5 t182.5 -138t240 -51.5q105 0 197 33.5t160.5 92.5t118.5 136.5t75 167.5t25 185q0 119 -40 229.5t-112.5 196t-182.5 137t-241 51.5q-130 0 -240 -51.5t-182.5 -137t-112.5 -196t-40 -229.5zM561 332v833h324q126 0 205 -82.5t79 -201.5q0 -93 -49.5 -164.5t-136.5 -100.5 l178 -284h-145l-166 266h-160v-266h-129zM690 711h182q72 0 116 49.5t44 120.5t-44.5 121.5t-115.5 50.5h-182v-342z" />
<glyph unicode="&#xaf;" horiz-adv-x="1110" d="M188 1481v159h734v-159h-734z" />
<glyph unicode="&#xb0;" horiz-adv-x="673" d="M43 1176q0 122 85 207t208 85t208 -85t85 -207q0 -123 -85 -208t-208 -85t-208 85t-85 208zM172 1176q0 -69 48 -117.5t116 -48.5q69 0 117.5 48.5t48.5 117.5q0 68 -48.5 117.5t-117.5 49.5q-67 0 -115.5 -49.5t-48.5 -117.5z" />
<glyph unicode="&#xb1;" horiz-adv-x="1177" d="M180 49v160h817v-160h-817zM180 776v160h320v330h178v-330h319v-160h-319v-327h-178v327h-320z" />
<glyph unicode="&#xb2;" horiz-adv-x="1079" d="M113 645q0 92 14 158.5t45 111.5t67 74t93 58q49 25 69.5 37t50 34.5t41 48t11.5 58.5q0 53 -31 81.5t-86 28.5q-58 0 -92.5 -35t-34.5 -102h-145q0 111 73 180.5t199 69.5q113 0 186.5 -59t73.5 -166q0 -42 -13.5 -78.5t-30 -60t-48.5 -48.5t-51.5 -36.5t-54.5 -31.5 q-3 -2 -5 -3l-4 -2q-97 -53 -128 -90t-31 -107h366v-121h-534z" />
<glyph unicode="&#xb3;" horiz-adv-x="1144" d="M98 897h146q0 -68 39.5 -107.5t103.5 -39.5q62 0 96.5 35t34.5 92q0 56 -34.5 89t-104.5 33h-68v115h68q65 0 96 31t31 82q0 54 -31.5 81t-87.5 27q-123 0 -123 -129h-145q0 104 68.5 173t195.5 69q115 0 191.5 -58t76.5 -157q0 -68 -35 -115.5t-92 -62.5q64 -19 102 -70 t38 -123q0 -107 -79.5 -169t-201.5 -62q-132 0 -208.5 73t-76.5 193z" />
<glyph unicode="&#xb4;" horiz-adv-x="1013" d="M123 1219l510 280l86 -139l-510 -281z" />
<glyph unicode="&#xb5;" horiz-adv-x="1177" d="M160 -504v1434h178v-492q0 -303 233 -303q87 0 148.5 44.5t90 115t28.5 158.5v477h178v-930h-178v166q-43 -89 -128 -139t-198 -50q-110 0 -174 58v-539h-178z" />
<glyph unicode="&#xb6;" horiz-adv-x="1337" d="M31 1067q0 75 20 136t52 102t78 71.5t91 47.5t97.5 27.5t92 13.5t79.5 3h653v-147h-109v-1624h-170v1622h-274v-1622h-168v977q-199 0 -320.5 99.5t-121.5 293.5z" />
<glyph unicode="&#xb7;" horiz-adv-x="522" d="M119 639q0 59 41 102t100 43t102.5 -43.5t43.5 -101.5t-43.5 -99.5t-102.5 -41.5q-58 0 -99.5 41t-41.5 100z" />
<glyph unicode="&#xb8;" horiz-adv-x="978" d="M297 -301h109q6 -38 30 -60t62 -22q43 0 69.5 27.5t26.5 70.5q0 44 -26 69.5t-68 25.5q-55 0 -80 -52h-94v242h118v-145q27 41 88 41q66 0 118 -50.5t52 -126.5q0 -81 -54.5 -139.5t-141.5 -58.5q-28 0 -56.5 7t-62.5 24t-58.5 55t-31.5 92z" />
<glyph unicode="&#xb9;" horiz-adv-x="706" d="M96 1192v106q105 0 141.5 31.5t36.5 104.5h132v-789h-150v547h-160z" />
<glyph unicode="&#xba;" horiz-adv-x="1146" d="M84 465q0 132 59.5 243t172.5 178.5t257 67.5q143 0 256.5 -67.5t173.5 -178.5t60 -243q0 -98 -35.5 -187t-98 -155.5t-155 -106t-201.5 -39.5q-144 0 -257 67.5t-172.5 178t-59.5 242.5zM260 465q0 -137 87 -232.5t226 -95.5t226.5 95.5t87.5 232.5q0 136 -87.5 233 t-226.5 97t-226 -97t-87 -233z" />
<glyph unicode="&#xbb;" horiz-adv-x="966" d="M82 201v174l258 221l-258 221v176l401 -342v-108zM483 201v174l258 221l-258 221v176l402 -342v-108z" />
<glyph unicode="&#xbc;" horiz-adv-x="1884" d="M158 1192v106q105 0 141.5 31.5t36.5 104.5h131v-789h-150v547h-159zM307 0l895 1530l144 -82l-897 -1542zM1161 238v550h146v-428h166v230h147v-230h106v-122h-106v-238h-147v238h-312z" />
<glyph unicode="&#xbd;" horiz-adv-x="1884" d="M174 1192v106q105 0 141.5 31.5t36.5 104.5h131v-789h-149v547h-160zM324 -12l895 1542l143 -82l-897 -1542zM1176 0q0 93 14 159t45 111t67 73.5t93 57.5q45 22 69 36t51.5 36t39.5 48t12 59q0 53 -31 81.5t-86 28.5q-58 0 -92.5 -35t-34.5 -102h-145q0 111 73.5 180.5 t198.5 69.5q113 0 186.5 -59t73.5 -166q0 -41 -13 -77t-27.5 -58t-47 -48.5t-48.5 -36t-54 -31.5q-4 -3 -6 -4t-5 -3t-6 -3q-97 -51 -128.5 -88.5t-31.5 -107.5h367v-121h-534z" />
<glyph unicode="&#xbe;" horiz-adv-x="1884" d="M121 897h145q0 -68 40 -107.5t104 -39.5q62 0 96.5 35t34.5 92q0 56 -35 89t-105 33h-67v115h67q65 0 96 31t31 82q0 54 -31 81t-87 27q-123 0 -123 -129h-146q0 105 68.5 173.5t196.5 68.5q115 0 191.5 -58t76.5 -157q0 -68 -35 -115.5t-92 -62.5q64 -19 101.5 -70 t37.5 -123q0 -107 -79 -169t-201 -62q-132 0 -208.5 73t-76.5 193zM344 0l895 1530l143 -82l-897 -1542zM1198 238v550h145v-428h166v230h148v-230h106v-122h-106v-238h-148v238h-311z" />
<glyph unicode="&#xbf;" horiz-adv-x="1032" d="M90 369q0 42 8.5 82t19.5 69t34 60.5t37 48.5t44.5 43t40.5 33.5t39 29.5q55 41 83 66t49 61.5t27.5 78.5t6.5 110h180q0 -147 -40.5 -233t-139.5 -156q-34 -25 -49.5 -37t-45 -36.5t-44 -44.5t-32 -48t-25 -59t-7.5 -66q0 -109 69 -167.5t181 -58.5q124 0 198.5 74 t74.5 207h186q0 -206 -130 -327.5t-329 -121.5q-187 0 -311.5 108t-124.5 284zM418 1315q0 62 44 105.5t107 43.5q61 0 104.5 -44.5t43.5 -104.5q0 -61 -42.5 -105.5t-105.5 -44.5t-107 44t-44 106z" />
<glyph unicode="&#xc0;" horiz-adv-x="1144" d="M10 0l494 1434h135l496 -1434h-197l-76 219h-581l-74 -219h-197zM309 1815l86 141l510 -281l-86 -141zM338 389h467l-232 739z" />
<glyph unicode="&#xc1;" horiz-adv-x="1144" d="M10 0l494 1434h135l496 -1434h-197l-76 219h-581l-74 -219h-197zM276 1645l510 280l84 -139l-510 -281zM338 389h467l-232 739z" />
<glyph unicode="&#xc2;" horiz-adv-x="1144" d="M10 0l494 1434h135l496 -1434h-197l-76 219h-581l-74 -219h-197zM205 1663l366 297l371 -297l-111 -125l-258 209l-256 -207zM338 389h467l-232 739z" />
<glyph unicode="&#xc3;" horiz-adv-x="1144" d="M10 0l494 1434h135l496 -1434h-197l-76 219h-581l-74 -219h-197zM213 1747q55 35 98.5 53.5t64 21.5t48.5 3q30 0 145 -28t156 -28q23 0 50 10t102 46l69 -115q-109 -84 -205 -84q-44 0 -153.5 26.5t-147.5 26.5q-55 0 -149 -49zM338 389h467l-232 739z" />
<glyph unicode="&#xc4;" horiz-adv-x="1144" d="M10 0l494 1434h135l496 -1434h-197l-76 219h-581l-74 -219h-197zM197 1726q0 58 41.5 102t99.5 44t101.5 -43.5t43.5 -102.5t-43 -100t-102 -41q-58 0 -99.5 41.5t-41.5 99.5zM338 389h467l-232 739zM666 1726q0 58 42.5 102t100.5 44t100.5 -43.5t42.5 -102.5 q0 -58 -42 -99.5t-101 -41.5t-101 41.5t-42 99.5z" />
<glyph unicode="&#xc5;" horiz-adv-x="1144" d="M10 0l494 1434h135l496 -1434h-197l-76 219h-581l-74 -219h-197zM322 1747q0 104 73 178t178 74q104 0 178 -75t74 -177t-74 -177t-178 -75q-105 0 -178 75t-73 177zM338 389h467l-232 739zM453 1747q0 -47 35 -83t85 -36q49 0 84 35.5t35 85.5t-35 85.5t-84 35.5 q-50 0 -85 -36.5t-35 -86.5z" />
<glyph unicode="&#xc6;" horiz-adv-x="1771" d="M4 0l707 1434h903v-168h-617v-469h617v-168h-617v-461h617v-168h-805v221h-494l-106 -221h-205zM395 389h414v856z" />
<glyph unicode="&#xc7;" horiz-adv-x="1587" d="M84 719q0 118 31 228t94 204t150.5 164.5t207.5 110.5t258 40q142 0 262.5 -41.5t206 -114t140 -169.5t73.5 -209h-196q-33 164 -159 265t-321 101q-128 0 -235 -48.5t-176.5 -129t-107.5 -184.5t-38 -217q0 -157 70 -290t200 -213.5t294 -80.5q172 0 294.5 85.5 t170.5 221.5h204q-56 -201 -229 -333.5t-414 -139.5h-16v-84q30 37 88 37q66 0 117 -48t51 -126q0 -79 -55 -138t-142 -59q-28 0 -57 7.5t-61 25.5t-55.5 54t-31.5 86h109q15 -76 88 -76q42 0 69 27t27 69t-26 68t-68 26q-53 0 -78 -49h-92v184q-198 23 -347 131.5 t-224.5 268.5t-75.5 346z" />
<glyph unicode="&#xc8;" horiz-adv-x="1114" d="M160 0v1434h805v-168h-619v-469h619v-168h-619v-461h619v-168h-805zM297 1788l84 139l510 -280l-84 -140z" />
<glyph unicode="&#xc9;" horiz-adv-x="1114" d="M160 0v1434h805v-168h-619v-469h619v-168h-619v-461h619v-168h-805zM270 1675l510 281l86 -141l-510 -281z" />
<glyph unicode="&#xca;" horiz-adv-x="1114" d="M160 0v1434h805v-168h-619v-469h619v-168h-619v-461h619v-168h-805zM201 1663l366 297l371 -297l-111 -125l-258 209l-256 -207z" />
<glyph unicode="&#xcb;" horiz-adv-x="1114" d="M160 0v1434h805v-168h-619v-469h619v-168h-619v-461h619v-168h-805zM207 1726q0 58 42.5 102t100.5 44t101 -43.5t43 -102.5t-42.5 -100t-101.5 -41t-101 41.5t-42 99.5zM678 1726q0 58 41.5 102t99.5 44q57 0 101.5 -44t44.5 -102q0 -59 -43.5 -100t-102.5 -41 t-100 41.5t-41 99.5z" />
<glyph unicode="&#xcc;" horiz-adv-x="512" d="M-41 1786l86 139l510 -280l-86 -140zM160 0v1434h192v-1434h-192z" />
<glyph unicode="&#xcd;" horiz-adv-x="512" d="M-41 1645l510 280l86 -139l-510 -281zM160 0v1434h192v-1434h-192z" />
<glyph unicode="&#xce;" horiz-adv-x="512" d="M-113 1663l369 297l371 -297l-111 -125l-258 209l-256 -207zM160 0v1434h192v-1434h-192z" />
<glyph unicode="&#xcf;" horiz-adv-x="512" d="M-102 1726q0 58 42.5 102t100.5 44t100.5 -43.5t42.5 -102.5q0 -58 -42 -99.5t-101 -41.5q-61 0 -102 41t-41 100zM160 0v1434h192v-1434h-192zM367 1726q0 58 42.5 102t100.5 44t100.5 -43.5t42.5 -102.5q0 -58 -42 -99.5t-101 -41.5t-101 41.5t-42 99.5z" />
<glyph unicode="&#xd0;" horiz-adv-x="1427" d="M-76 639v158h236v637h442q137 0 257 -40t208 -109t151.5 -160t95.5 -195.5t32 -212.5t-32 -212.5t-95.5 -195.5t-151.5 -160t-208 -109t-257 -40h-442v639h-236zM346 168h256q128 0 234 47t174 124.5t105.5 175t37.5 202.5q0 104 -37.5 202t-106 175t-174.5 124t-233 48 h-256v-469h248v-158h-248v-471z" />
<glyph unicode="&#xd1;" horiz-adv-x="1357" d="M160 0v1434h207l645 -1108v1108h186v-1434h-207l-645 1108v-1108h-186zM299 1747q55 35 98.5 53.5t64 21.5t48.5 3q30 0 145 -28t156 -28q23 0 50 10t102 46l69 -115q-109 -84 -205 -84q-44 0 -153.5 26.5t-147.5 26.5q-55 0 -149 -49z" />
<glyph unicode="&#xd2;" horiz-adv-x="1644" d="M84 717q0 146 52 281t145 239.5t234 166.5t308 62t308.5 -62.5t234.5 -166.5t145 -239t52 -281t-52 -280.5t-145 -239.5t-234 -167.5t-307 -62.5q-168 0 -309.5 62.5t-234.5 167t-145 239.5t-52 281zM279 717q0 -112 38.5 -217t107 -186t172.5 -130t226 -49t226 49 t172.5 130t106.5 185.5t38 217.5q0 153 -64.5 284.5t-190.5 214t-288 82.5q-122 0 -226 -48.5t-172.5 -129.5t-107 -185.5t-38.5 -217.5zM551 1815l86 141l510 -281l-86 -141z" />
<glyph unicode="&#xd3;" horiz-adv-x="1644" d="M84 717q0 146 52 281t145 239.5t234 166.5t308 62t308.5 -62.5t234.5 -166.5t145 -239t52 -281t-52 -280.5t-145 -239.5t-234 -167.5t-307 -62.5q-168 0 -309.5 62.5t-234.5 167t-145 239.5t-52 281zM279 717q0 -112 38.5 -217t107 -186t172.5 -130t226 -49t226 49 t172.5 130t106.5 185.5t38 217.5q0 153 -64.5 284.5t-190.5 214t-288 82.5q-122 0 -226 -48.5t-172.5 -129.5t-107 -185.5t-38.5 -217.5zM492 1675l509 281l86 -141l-509 -281z" />
<glyph unicode="&#xd4;" horiz-adv-x="1644" d="M84 717q0 146 52 281t145 239.5t234 166.5t308 62t308.5 -62.5t234.5 -166.5t145 -239t52 -281t-52 -280.5t-145 -239.5t-234 -167.5t-307 -62.5q-168 0 -309.5 62.5t-234.5 167t-145 239.5t-52 281zM279 717q0 -112 38.5 -217t107 -186t172.5 -130t226 -49t226 49 t172.5 130t106.5 185.5t38 217.5q0 153 -64.5 284.5t-190.5 214t-288 82.5q-122 0 -226 -48.5t-172.5 -129.5t-107 -185.5t-38.5 -217.5zM455 1663l368 297l369 -297l-111 -125l-258 209l-256 -207z" />
<glyph unicode="&#xd5;" horiz-adv-x="1644" d="M84 717q0 146 52 281t145 239.5t234 166.5t308 62t308.5 -62.5t234.5 -166.5t145 -239t52 -281t-52 -280.5t-145 -239.5t-234 -167.5t-307 -62.5q-168 0 -309.5 62.5t-234.5 167t-145 239.5t-52 281zM279 717q0 -112 38.5 -217t107 -186t172.5 -130t226 -49t226 49 t172.5 130t106.5 185.5t38 217.5q0 153 -64.5 284.5t-190.5 214t-288 82.5q-122 0 -226 -48.5t-172.5 -129.5t-107 -185.5t-38.5 -217.5zM455 1747q56 36 98.5 54t63 21t49.5 3q30 0 145 -28t156 -28q23 0 51 10.5t100 45.5l70 -115q-109 -84 -205 -84q-45 0 -154 26.5 t-147 26.5q-56 0 -150 -49z" />
<glyph unicode="&#xd6;" horiz-adv-x="1644" d="M84 717q0 146 52 281t145 239.5t234 166.5t308 62t308.5 -62.5t234.5 -166.5t145 -239t52 -281t-52 -280.5t-145 -239.5t-234 -167.5t-307 -62.5q-168 0 -309.5 62.5t-234.5 167t-145 239.5t-52 281zM279 717q0 -112 38.5 -217t107 -186t172.5 -130t226 -49t226 49 t172.5 130t106.5 185.5t38 217.5q0 153 -64.5 284.5t-190.5 214t-288 82.5q-122 0 -226 -48t-172.5 -129t-107 -185.5t-38.5 -218.5zM444 1726q0 58 43 102t101 44t100.5 -43.5t42.5 -102.5q0 -58 -42 -99.5t-101 -41.5q-60 0 -102 40.5t-42 100.5zM913 1726q0 58 43 102 t101 44t100.5 -43.5t42.5 -102.5q0 -58 -42 -99.5t-101 -41.5q-58 0 -101 41t-43 100z" />
<glyph unicode="&#xd7;" horiz-adv-x="1177" d="M233 354l234 236l-227 229l112 113l230 -230l235 238l127 -125l-237 -237l231 -232l-115 -110l-229 229l-236 -236z" />
<glyph unicode="&#xd8;" horiz-adv-x="1644" d="M84 717q0 147 52 282t145 239t233 166t305 62q108 0 211 -28l78 178l160 -68l-76 -176q173 -97 272 -275t99 -380q0 -116 -32.5 -226.5t-96.5 -205t-152 -166t-206.5 -112t-252.5 -40.5q-126 0 -221 33l-67 -164l-160 66l67 164q-169 97 -263.5 273t-94.5 378zM279 717 q0 -147 61.5 -275t173.5 -206l449 1044q-64 18 -140 18q-122 0 -226 -48t-172.5 -129t-107 -185.5t-38.5 -218.5zM670 158q81 -23 153 -23q122 0 226 49t172 130.5t106.5 185.5t38.5 215q0 147 -65.5 279.5t-180.5 207.5z" />
<glyph unicode="&#xd9;" horiz-adv-x="1288" d="M145 465v969h187v-969q0 -137 86.5 -233.5t224.5 -96.5t225.5 95.5t87.5 234.5v969h187v-969q0 -135 -61 -248t-176.5 -181.5t-262.5 -68.5t-262 68t-175.5 181t-60.5 249zM369 1815l86 141l510 -281l-86 -141z" />
<glyph unicode="&#xda;" horiz-adv-x="1288" d="M145 465v969h187v-969q0 -137 86.5 -233.5t224.5 -96.5t225.5 95.5t87.5 234.5v969h187v-969q0 -135 -61 -248t-176.5 -181.5t-262.5 -68.5t-262 68t-175.5 181t-60.5 249zM309 1675l510 281l84 -141l-510 -281z" />
<glyph unicode="&#xdb;" horiz-adv-x="1288" d="M145 465v969h187v-969q0 -137 86.5 -233.5t224.5 -96.5t225.5 95.5t87.5 234.5v969h187v-969q0 -135 -61 -248t-176.5 -181.5t-262.5 -68.5t-262 68t-175.5 181t-60.5 249zM268 1665l367 297l371 -297l-111 -125l-258 207l-256 -207z" />
<glyph unicode="&#xdc;" horiz-adv-x="1288" d="M145 465v969h187v-969q0 -137 86.5 -233.5t224.5 -96.5t225.5 95.5t87.5 234.5v969h187v-969q0 -135 -61 -248t-176.5 -181.5t-262.5 -68.5t-262 68t-175.5 181t-60.5 249zM264 1726q0 58 43 102t101 44t100.5 -43.5t42.5 -102.5q0 -58 -42 -99.5t-101 -41.5 q-60 0 -102 40.5t-42 100.5zM733 1726q0 58 43 102t101 44t100.5 -43.5t42.5 -102.5q0 -58 -42 -99.5t-101 -41.5q-58 0 -101 41t-43 100z" />
<glyph unicode="&#xdd;" horiz-adv-x="1193" d="M20 1434h218l419 -670l338 670h205l-721 -1434h-205l287 569zM375 1665l510 281l86 -142l-510 -280z" />
<glyph unicode="&#xde;" horiz-adv-x="1024" d="M160 0v1434h168v-271h159q144 0 254 -65t165 -167.5t55 -223.5q0 -120 -55 -222.5t-165 -167.5t-254 -65h-159v-252h-168zM328 401h159q140 0 223 90.5t83 215.5t-83 216t-223 91h-159v-613z" />
<glyph unicode="&#xdf;" horiz-adv-x="1150" d="M145 0v1030q0 190 121.5 309t317.5 119q188 0 315 -108.5t127 -284.5q0 -121 -63.5 -202.5t-176.5 -114.5q122 -36 198.5 -127.5t76.5 -229.5q0 -128 -68.5 -224.5t-173.5 -144t-227 -47.5q-95 0 -164 25v156q89 -21 162 -21q121 0 207 71t86 187q0 109 -77 192t-220 83 h-88v159h82q133 0 200.5 68.5t67.5 169.5q0 106 -74.5 170.5t-187.5 64.5q-121 0 -192.5 -74t-71.5 -196v-1030h-177z" />
<glyph unicode="&#xe0;" horiz-adv-x="1222" d="M84 465q0 129 59.5 241t167 180t238.5 68q118 0 206 -50t132 -134v160h176v-930h-176v162q-45 -84 -131.5 -134.5t-204.5 -50.5q-99 0 -186.5 39.5t-148.5 106t-96.5 156t-35.5 186.5zM260 465q0 -137 87 -232.5t226 -95.5t226.5 95.5t87.5 232.5q0 136 -87.5 233 t-226.5 97t-226 -97t-87 -233zM270 1311l86 139l510 -281l-86 -139z" />
<glyph unicode="&#xe1;" horiz-adv-x="1222" d="M84 465q0 129 59.5 241t167 180t238.5 68q118 0 206 -50t132 -134v160h176v-930h-176v162q-45 -84 -131.5 -134.5t-204.5 -50.5q-99 0 -186.5 39.5t-148.5 106t-96.5 156t-35.5 186.5zM225 1169l510 281l86 -139l-510 -281zM260 465q0 -137 87 -232.5t226 -95.5 t226.5 95.5t87.5 232.5q0 136 -87.5 233t-226.5 97t-226 -97t-87 -233z" />
<glyph unicode="&#xe2;" horiz-adv-x="1222" d="M84 465q0 129 59.5 241t167 180t238.5 68q118 0 206 -50t132 -134v160h176v-930h-176v162q-45 -84 -131.5 -134.5t-204.5 -50.5q-99 0 -186.5 39.5t-148.5 106t-96.5 156t-35.5 186.5zM205 1198l366 297l371 -297l-111 -125l-258 207l-256 -207zM260 465 q0 -137 87 -232.5t226 -95.5t226.5 95.5t87.5 232.5q0 136 -87.5 233t-226.5 97t-226 -97t-87 -233z" />
<glyph unicode="&#xe3;" horiz-adv-x="1222" d="M84 465q0 129 59.5 241t167 180t238.5 68q118 0 206 -50t132 -134v160h176v-930h-176v162q-45 -84 -131.5 -134.5t-204.5 -50.5q-99 0 -186.5 39.5t-148.5 106t-96.5 156t-35.5 186.5zM213 1333q55 35 98.5 53.5t64 21.5t48.5 3q30 0 145 -27.5t156 -27.5q23 0 51 10 t101 45l69 -115q-55 -41 -101.5 -62.5t-101.5 -21.5q-48 0 -157 27t-146 27q-55 0 -149 -52zM260 465q0 -137 87 -232.5t226 -95.5t226.5 95.5t87.5 232.5q0 136 -87.5 233t-226.5 97t-226 -97t-87 -233z" />
<glyph unicode="&#xe4;" horiz-adv-x="1222" d="M84 465q0 129 59.5 241t167 180t238.5 68q118 0 206 -50t132 -134v160h176v-930h-176v162q-45 -84 -131.5 -134.5t-204.5 -50.5q-99 0 -186.5 39.5t-148.5 106t-96.5 156t-35.5 186.5zM190 1249q0 59 43 101.5t101 42.5t100.5 -42.5t42.5 -101.5t-42.5 -101t-100.5 -42 q-59 0 -101.5 41.5t-42.5 101.5zM260 465q0 -137 87.5 -232.5t225.5 -95.5q139 0 226.5 95.5t87.5 232.5q0 136 -87.5 233t-226.5 97t-226 -97t-87 -233zM662 1249q0 59 42.5 101.5t100.5 42.5t100.5 -42.5t42.5 -101.5t-42 -101t-101 -42t-101 42t-42 101z" />
<glyph unicode="&#xe5;" horiz-adv-x="1222" d="M84 465q0 129 59.5 241t167 180t238.5 68q118 0 206 -50t132 -134v160h176v-930h-176v162q-45 -84 -131.5 -134.5t-204.5 -50.5q-99 0 -186.5 39.5t-148.5 106t-96.5 156t-35.5 186.5zM260 465q0 -137 87 -232.5t226 -95.5t226.5 95.5t87.5 232.5q0 136 -87.5 233 t-226.5 97t-226 -97t-87 -233zM340 1284q0 103 74 177.5t178 74.5q102 0 177 -75t75 -177t-75 -177t-177 -75q-104 0 -178 75t-74 177zM473 1286q0 -50 35 -85.5t84 -35.5q51 0 86 35.5t35 85.5t-35 85.5t-86 35.5q-50 0 -84.5 -37t-34.5 -84z" />
<glyph unicode="&#xe6;" horiz-adv-x="1871" d="M84 465q0 129 59.5 241t167 180t238.5 68q118 0 206 -50t132 -134v160h176v-82q109 106 278 106q182 0 308.5 -121.5t126.5 -297.5q0 -60 -9 -117h-700q2 -133 72.5 -212t208.5 -79q181 0 237 147h180q-27 -123 -137 -210t-276 -87q-178 0 -289 107v-84h-176v162 q-45 -84 -131.5 -134.5t-204.5 -50.5q-99 0 -186.5 39.5t-148.5 106t-96.5 156t-35.5 186.5zM260 465q0 -137 87 -232.5t226 -95.5t226.5 95.5t87.5 232.5q0 138 -89 234t-227 96q-137 0 -224 -97t-87 -233zM1069 553h533q0 113 -75 181.5t-192 68.5q-113 0 -187.5 -66 t-78.5 -184z" />
<glyph unicode="&#xe7;" horiz-adv-x="1083" d="M88 465q0 96 30 183t87 156t149 109.5t207 40.5q101 0 182 -30.5t132 -82t80.5 -115t35.5 -134.5h-178q-11 90 -73.5 146.5t-174.5 56.5q-99 0 -168.5 -47t-100 -119.5t-30.5 -163.5t30.5 -163t100.5 -118.5t172 -46.5q108 0 164.5 46.5t81.5 135.5h178 q-10 -70 -41.5 -130.5t-83 -108t-128.5 -75t-171 -28.5v-122q27 41 90 41q66 0 117 -49t51 -128q0 -82 -53 -140t-141 -58q-28 0 -57 7t-63 24t-59 55t-32 92h108q8 -37 32.5 -59.5t60.5 -22.5q42 0 69 28t27 70q0 43 -26.5 69t-67.5 26q-55 0 -80 -52h-92v230 q-119 24 -203 96t-123 169.5t-39 211.5z" />
<glyph unicode="&#xe8;" horiz-adv-x="1075" d="M88 469q0 211 123.5 348t325.5 137q191 0 315.5 -120.5t124.5 -298.5q0 -66 -8 -117h-699q0 -126 70.5 -208.5t210.5 -82.5q181 0 237 147h181q-25 -124 -137 -210.5t-281 -86.5q-113 0 -203 40.5t-146 109.5t-85 156.5t-29 185.5zM272 553h533q0 114 -73.5 182 t-190.5 68q-114 0 -189.5 -65t-79.5 -185zM287 1311l84 139l510 -281l-84 -139z" />
<glyph unicode="&#xe9;" horiz-adv-x="1075" d="M88 469q0 211 123.5 348t325.5 137q191 0 315.5 -120.5t124.5 -298.5q0 -66 -8 -117h-699q0 -126 70.5 -208.5t210.5 -82.5q181 0 237 147h181q-25 -124 -137 -210.5t-281 -86.5q-113 0 -203 40.5t-146 109.5t-85 156.5t-29 185.5zM231 1169l510 281l84 -139l-510 -281z M272 553h533q0 114 -73.5 182t-190.5 68q-114 0 -189.5 -65t-79.5 -185z" />
<glyph unicode="&#xea;" horiz-adv-x="1075" d="M88 469q0 211 123.5 348t325.5 137q191 0 315.5 -120.5t124.5 -298.5q0 -66 -8 -117h-699q0 -126 70.5 -208.5t210.5 -82.5q181 0 237 147h181q-25 -124 -137 -210.5t-281 -86.5q-113 0 -203 40.5t-146 109.5t-85 156.5t-29 185.5zM176 1198l367 297l370 -297l-110 -125 l-258 207l-256 -207zM272 553h533q0 114 -73.5 182t-190.5 68q-114 0 -189.5 -65t-79.5 -185z" />
<glyph unicode="&#xeb;" horiz-adv-x="1075" d="M88 469q0 211 123.5 348t325.5 137q191 0 315.5 -120.5t124.5 -298.5q0 -66 -8 -117h-699q0 -126 70.5 -208.5t210.5 -82.5q181 0 237 147h181q-25 -124 -137 -210.5t-281 -86.5q-113 0 -203 40.5t-146 109.5t-85 156.5t-29 185.5zM166 1249q0 59 41.5 101.5t99.5 42.5 t102 -43t44 -101t-43.5 -100.5t-102.5 -42.5t-100 41t-41 102zM272 553h533q0 114 -73.5 182t-190.5 68q-114 0 -189.5 -65t-79.5 -185zM635 1249q0 59 42.5 101.5t100.5 42.5t101 -42.5t43 -101.5q0 -58 -42.5 -100.5t-101.5 -42.5q-58 0 -100.5 42t-42.5 101z" />
<glyph unicode="&#xec;" horiz-adv-x="565" d="M-14 1341l84 140l510 -281l-84 -139zM195 0v930h176v-930h-176z" />
<glyph unicode="&#xed;" horiz-adv-x="565" d="M-14 1200l510 281l84 -140l-510 -280zM193 0v930h178v-930h-178z" />
<glyph unicode="&#xee;" horiz-adv-x="565" d="M-86 1198l369 297l368 -297l-110 -125l-258 207l-256 -207zM195 0v930h178v-930h-178z" />
<glyph unicode="&#xef;" horiz-adv-x="565" d="M-96 1249q0 59 42.5 101.5t100.5 42.5q59 0 102.5 -43t43.5 -101t-43.5 -100.5t-102.5 -42.5t-101 42t-42 101zM176 0v930h178v-930h-178zM375 1249q0 59 42.5 101.5t100.5 42.5t101 -42.5t43 -101.5t-42 -101t-102 -42q-58 0 -100.5 42t-42.5 101z" />
<glyph unicode="&#xf0;" d="M90 465q0 131 61.5 243t172 179t245.5 67q64 0 88 -24l-94 153l-231 -122l-70 133l217 118l-135 222h215l80 -136l180 97l72 -135l-170 -91l250 -401q98 -159 98 -305q0 -132 -59.5 -242t-172.5 -177t-257 -67q-109 0 -201.5 39.5t-155 106t-98 155.5t-35.5 187zM266 465 q0 -137 87.5 -232.5t226.5 -95.5q138 0 225.5 95.5t87.5 232.5q0 136 -88 233t-225 97q-139 0 -226.5 -97t-87.5 -233z" />
<glyph unicode="&#xf1;" d="M160 0v930h178v-164q42 89 126 138.5t204 49.5q166 0 257 -100t91 -305v-549h-178v494q0 139 -56 221t-178 82q-86 0 -148 -46.5t-90 -117t-28 -154.5v-479h-178zM213 1333q55 35 98.5 53.5t64 21.5t48.5 3q30 0 145 -27.5t156 -27.5q23 0 51 10t101 45l71 -115 q-38 -27 -62.5 -41.5t-64.5 -28.5t-78 -14q-46 0 -155 27t-148 27q-32 0 -63.5 -11.5t-85.5 -40.5z" />
<glyph unicode="&#xf2;" horiz-adv-x="1146" d="M84 465q0 132 59.5 243t172.5 178.5t257 67.5q143 0 256.5 -67.5t173.5 -178.5t60 -243q0 -98 -35.5 -187t-98 -155.5t-155 -106t-201.5 -39.5q-144 0 -257 67.5t-172.5 178t-59.5 242.5zM260 465q0 -137 87 -232.5t226 -95.5t226.5 95.5t87.5 232.5q0 136 -87.5 233 t-226.5 97t-226 -97t-87 -233zM291 1311l84 139l510 -281l-84 -139z" />
<glyph unicode="&#xf3;" horiz-adv-x="1146" d="M84 465q0 132 59.5 243t172.5 178.5t257 67.5q143 0 256.5 -67.5t173.5 -178.5t60 -243q0 -98 -35.5 -187t-98 -155.5t-155 -106t-201.5 -39.5q-144 0 -257 67.5t-172.5 178t-59.5 242.5zM231 1169l510 281l84 -139l-510 -281zM260 465q0 -137 87 -232.5t226 -95.5 t226.5 95.5t87.5 232.5q0 136 -87.5 233t-226.5 97t-226 -97t-87 -233z" />
<glyph unicode="&#xf4;" horiz-adv-x="1146" d="M84 465q0 132 59.5 243t172.5 178.5t257 67.5q143 0 256.5 -67.5t173.5 -178.5t60 -243q0 -98 -35.5 -187t-98 -155.5t-155 -106t-201.5 -39.5q-144 0 -257 67.5t-172.5 178t-59.5 242.5zM207 1198l366 297l371 -297l-110 -125l-259 207l-256 -205zM260 465 q0 -137 87 -232.5t226 -95.5t226.5 95.5t87.5 232.5q0 136 -87.5 233t-226.5 97t-226 -97t-87 -233z" />
<glyph unicode="&#xf5;" horiz-adv-x="1146" d="M84 465q0 132 59.5 243t172.5 178.5t257 67.5q143 0 256.5 -67.5t173.5 -178.5t60 -243q0 -98 -35.5 -187t-98 -155.5t-155 -106t-201.5 -39.5q-144 0 -257 67.5t-172.5 178t-59.5 242.5zM193 1294q56 36 98.5 54t62.5 21t49 3q30 0 146 -27.5t156 -27.5q24 0 52 10 t99 45l72 -115q-37 -26 -62 -41t-64.5 -28.5t-76.5 -13.5q-47 0 -157 26.5t-146 26.5q-54 0 -152 -49zM260 465q0 -137 87 -232.5t226 -95.5t226.5 95.5t87.5 232.5q0 136 -87.5 233t-226.5 97t-226 -97t-87 -233z" />
<glyph unicode="&#xf6;" horiz-adv-x="1146" d="M84 465q0 132 59.5 243t172.5 178.5t257 67.5q143 0 256.5 -67.5t173.5 -178.5t60 -243q0 -98 -35.5 -187t-98 -155.5t-155 -106t-201.5 -39.5q-144 0 -257 67.5t-172.5 178t-59.5 242.5zM195 1249q0 59 42.5 101.5t100.5 42.5t100.5 -42.5t42.5 -101.5t-42.5 -101 t-100.5 -42t-100.5 42t-42.5 101zM260 465q0 -137 87 -232.5t226 -95.5t226.5 95.5t87.5 232.5q0 136 -87.5 233t-226.5 97t-226 -97t-87 -233zM666 1249q0 59 41.5 101.5t99.5 42.5q59 0 102 -42t43 -102q0 -58 -43 -100.5t-102 -42.5q-58 0 -99.5 42t-41.5 101z" />
<glyph unicode="&#xf7;" horiz-adv-x="1177" d="M176 401v158h828v-158h-828zM446 174q0 59 42 101t102 42q58 0 100.5 -42.5t42.5 -100.5t-42.5 -100.5t-100.5 -42.5q-59 0 -101.5 41.5t-42.5 101.5zM446 805q0 59 42 101t102 42q58 0 100.5 -42t42.5 -101t-42.5 -101t-100.5 -42q-59 0 -101.5 41.5t-42.5 101.5z" />
<glyph unicode="&#xf8;" horiz-adv-x="1146" d="M84 465q0 132 59.5 243t171 178.5t252.5 67.5q43 0 113 -12l65 154l152 -66l-63 -147q108 -64 168.5 -175.5t60.5 -242.5t-60 -242t-173 -178.5t-255 -67.5q-61 0 -124 17l-68 -158l-152 66l66 153q-100 66 -156.5 174t-56.5 236zM260 465q0 -74 28 -139t79 -109l247 574 q-10 4 -30 4q-145 0 -234.5 -94t-89.5 -236zM516 143q24 -6 57 -6q139 0 226.5 95.5t87.5 230.5q0 80 -32 148t-91 110z" />
<glyph unicode="&#xf9;" d="M141 381v549h178v-492q0 -140 55.5 -221.5t176.5 -81.5q130 0 199 91t69 227v477h178v-930h-178v166q-42 -89 -127 -139t-205 -50q-186 0 -276 121q-39 51 -54.5 117t-15.5 166zM283 1311l86 139l510 -281l-86 -139z" />
<glyph unicode="&#xfa;" d="M141 381v549h178v-492q0 -140 55.5 -221.5t176.5 -81.5q130 0 199 91t69 227v477h178v-930h-178v166q-42 -89 -127 -139t-205 -50q-186 0 -276 121q-39 51 -54.5 117t-15.5 166zM274 1169l510 281l84 -139l-510 -281z" />
<glyph unicode="&#xfb;" d="M141 381v549h178v-492q0 -140 55.5 -221.5t176.5 -81.5q130 0 199 91t69 227v477h178v-930h-178v166q-42 -89 -127 -139t-205 -50q-186 0 -276 121q-39 51 -54.5 117t-15.5 166zM199 1198l366 297l371 -297l-111 -125l-258 207l-256 -207z" />
<glyph unicode="&#xfc;" d="M141 381v549h178v-492q0 -140 55.5 -221.5t176.5 -81.5q130 0 199 91t69 227v477h178v-930h-178v166q-42 -89 -127 -139t-205 -50q-186 0 -276 121q-39 51 -54.5 117t-15.5 166zM193 1249q0 59 42.5 101.5t100.5 42.5t100.5 -42.5t42.5 -101.5t-42.5 -101t-100.5 -42 t-100.5 42t-42.5 101zM664 1249q0 59 41 101.5t100 42.5t102 -42t43 -102q0 -58 -43 -100.5t-102 -42.5q-58 0 -99.5 42t-41.5 101z" />
<glyph unicode="&#xfd;" horiz-adv-x="1173" d="M143 -121h174q5 -117 65.5 -181.5t197.5 -64.5q135 0 198.5 70.5t63.5 230.5v232q-94 -189 -332 -189q-178 0 -262 99.5t-84 310.5v543h178v-488q0 -69 11.5 -122.5t37 -96.5t71.5 -65.5t111 -22.5q133 0 201 90t68 228v477h178v-996q0 -236 -115.5 -347t-322.5 -111 q-217 0 -326.5 110.5t-112.5 292.5zM295 1169l510 281l86 -139l-510 -281z" />
<glyph unicode="&#xfe;" horiz-adv-x="1216" d="M160 -504v1938h178v-664q45 83 131.5 133.5t202.5 50.5q130 0 238.5 -66.5t169.5 -177.5t61 -241q0 -131 -59 -243t-168 -180.5t-242 -68.5q-117 0 -203 50.5t-131 134.5v-666h-178zM338 465q0 -138 87.5 -233t225.5 -95q140 0 226 96t86 232q0 137 -86 233.5t-226 96.5 q-138 0 -225.5 -96.5t-87.5 -233.5z" />
<glyph unicode="&#xff;" horiz-adv-x="1173" d="M143 -121h174q5 -117 65.5 -181.5t197.5 -64.5q135 0 198.5 70.5t63.5 230.5v232q-94 -189 -332 -189q-178 0 -262 99.5t-84 310.5v543h178v-488q0 -69 11.5 -122.5t37 -96.5t71.5 -65.5t111 -22.5q133 0 201 90t68 228v477h178v-996q0 -236 -115.5 -347t-322.5 -111 q-217 0 -326.5 110.5t-112.5 292.5zM233 1247q0 57 40 98t98 41q56 0 96.5 -40t40.5 -99q0 -57 -40 -96t-97 -39t-97.5 39t-40.5 96zM705 1247q0 59 38.5 99t96.5 40t98.5 -40t40.5 -99q0 -57 -40 -96t-99 -39q-57 0 -96 39t-39 96z" />
<glyph unicode="&#x152;" horiz-adv-x="2320" d="M84 715q0 145 52 280t145 239.5t233 167t305 62.5q179 0 318 -70t231 -192v232h803v-168h-617v-469h617v-168h-617v-461h617v-168h-803v225q-200 -262 -549 -262q-165 0 -305 62.5t-233 167.5t-145 240.5t-52 281.5zM279 715q0 -114 38.5 -219t107 -185.5t172.5 -129 t226 -48.5q162 0 288 83t190.5 214.5t64.5 284.5q0 152 -64.5 283t-190.5 213.5t-288 82.5q-122 0 -226 -48.5t-172.5 -129t-107 -185t-38.5 -216.5z" />
<glyph unicode="&#x153;" horiz-adv-x="1871" d="M84 465q0 132 59.5 243t172.5 178.5t255 67.5q129 0 231 -53.5t165 -148.5q56 97 154 149.5t218 52.5q187 0 312 -120.5t125 -298.5q0 -60 -9 -117h-700q0 -130 72 -210.5t211 -80.5q177 0 235 147h180q-25 -123 -137.5 -210t-277.5 -87q-132 0 -228.5 54t-152.5 149 q-60 -95 -163 -149t-235 -54q-108 0 -200 39.5t-154.5 106t-97.5 155.5t-35 187zM260 465q0 -137 87 -232.5t226 -95.5q137 0 225.5 94.5t88.5 233.5q0 138 -89 234t-227 96q-137 0 -224 -97t-87 -233zM1069 553h533q0 114 -74 182t-191 68q-114 0 -189 -65t-79 -185z" />
<glyph unicode="&#x178;" horiz-adv-x="1193" d="M20 1434h218l419 -670l338 670h205l-721 -1434h-205l287 569zM276 1726q0 57 39.5 98.5t96.5 41.5q58 0 98.5 -40.5t40.5 -99.5q0 -57 -40 -96t-99 -39q-56 0 -96 38.5t-40 96.5zM745 1726q0 57 40.5 98.5t97.5 41.5q58 0 97.5 -40.5t39.5 -99.5q0 -57 -39.5 -96 t-97.5 -39q-57 0 -97.5 39t-40.5 96z" />
<glyph unicode="&#x2c6;" horiz-adv-x="960" d="M106 1427l369 297l369 -297l-111 -124l-258 206l-256 -204z" />
<glyph unicode="&#x2dc;" horiz-adv-x="1019" d="M152 1356q56 36 98.5 54t62.5 21t49 3q30 0 146 -28t156 -28q23 0 51 10.5t100 45.5l70 -115q-55 -41 -101.5 -62.5t-101.5 -21.5q-49 0 -158 26.5t-145 26.5q-56 0 -150 -49z" />
<glyph unicode="&#x2000;" horiz-adv-x="999" />
<glyph unicode="&#x2001;" horiz-adv-x="1999" />
<glyph unicode="&#x2002;" horiz-adv-x="999" />
<glyph unicode="&#x2003;" horiz-adv-x="1999" />
<glyph unicode="&#x2004;" horiz-adv-x="666" />
<glyph unicode="&#x2005;" horiz-adv-x="499" />
<glyph unicode="&#x2006;" horiz-adv-x="333" />
<glyph unicode="&#x2007;" horiz-adv-x="333" />
<glyph unicode="&#x2008;" horiz-adv-x="249" />
<glyph unicode="&#x2009;" horiz-adv-x="399" />
<glyph unicode="&#x200a;" horiz-adv-x="111" />
<glyph unicode="&#x2010;" horiz-adv-x="602" d="M61 504v160h480v-160h-480z" />
<glyph unicode="&#x2011;" horiz-adv-x="602" d="M61 504v160h480v-160h-480z" />
<glyph unicode="&#x2012;" horiz-adv-x="602" d="M61 504v160h480v-160h-480z" />
<glyph unicode="&#x2013;" horiz-adv-x="1030" d="M102 504v160h826v-160h-826z" />
<glyph unicode="&#x2014;" horiz-adv-x="2060" d="M102 504v160h1856v-160h-1856z" />
<glyph unicode="&#x2018;" horiz-adv-x="550" d="M123 1239q0 135 76.5 206t218.5 71v-86q-50 0 -86.5 -15.5t-53.5 -40.5t-24.5 -47.5t-7.5 -44.5q17 14 51 14q57 0 94 -39t37 -96q0 -61 -39 -100t-104 -39q-74 0 -118 56.5t-44 160.5z" />
<glyph unicode="&#x2019;" horiz-adv-x="550" d="M123 1376q0 58 41 99t104 41q74 0 117 -57t43 -163q0 -138 -76.5 -206t-216.5 -68v84q50 0 85.5 16t52.5 41.5t24.5 48t7.5 43.5q-8 -14 -49 -14q-57 0 -95 39t-38 96z" />
<glyph unicode="&#x201a;" horiz-adv-x="550" d="M123 113q0 59 40.5 100t104.5 41q73 0 116.5 -57.5t43.5 -161.5q0 -138 -77 -207.5t-216 -69.5v86q41 0 73 11.5t49.5 28.5t29 38.5t15 38t3.5 31.5q-11 -15 -49 -15q-58 0 -95.5 39.5t-37.5 96.5z" />
<glyph unicode="&#x201c;" horiz-adv-x="909" d="M123 1239q0 135 76.5 206t218.5 71v-86q-50 0 -86.5 -15.5t-53.5 -40.5t-24.5 -47.5t-7.5 -44.5q17 14 51 14q57 0 94 -39t37 -96q0 -61 -39 -100t-104 -39q-74 0 -118 56.5t-44 160.5zM481 1239q0 138 77 207.5t216 69.5v-86q-41 0 -73 -12t-49.5 -29t-29 -38.5t-15 -38 t-3.5 -30.5q10 14 49 14q57 0 95 -39t38 -96q0 -61 -40 -100t-105 -39q-73 0 -116.5 56.5t-43.5 160.5z" />
<glyph unicode="&#x201d;" horiz-adv-x="909" d="M123 1376q0 58 41 99t104 41q74 0 117 -57t43 -163q0 -138 -76.5 -206t-216.5 -68v84q50 0 85.5 16t52.5 41.5t24.5 48t7.5 43.5q-8 -14 -49 -14q-57 0 -95 39t-38 96zM481 1376q0 58 41.5 99t104.5 41q74 0 116.5 -56.5t42.5 -163.5q0 -138 -76 -206t-218 -68v84 q89 0 130.5 46.5t41.5 102.5q-11 -14 -52 -14q-57 0 -94 39t-37 96z" />
<glyph unicode="&#x201e;" horiz-adv-x="909" d="M123 113q0 59 40.5 100t104.5 41q73 0 116.5 -57.5t43.5 -161.5q0 -138 -77 -207.5t-216 -69.5v86q41 0 73 11.5t49.5 28.5t29 38.5t15 38t3.5 31.5q-11 -15 -49 -15q-58 0 -95.5 39.5t-37.5 96.5zM481 113q0 60 39.5 100.5t104.5 40.5q73 0 117 -57.5t44 -161.5 q0 -136 -76 -206.5t-218 -70.5v86q48 0 84 16t54 40.5t26 47.5t8 44q-15 -15 -52 -15q-57 0 -94 39.5t-37 96.5z" />
<glyph unicode="&#x2022;" horiz-adv-x="712" d="M119 639q0 100 69.5 170t167.5 70q100 0 170 -70t70 -170q0 -97 -70.5 -167.5t-169.5 -70.5q-98 0 -167.5 70.5t-69.5 167.5z" />
<glyph unicode="&#x2026;" horiz-adv-x="1923" d="M119 133q0 59 41.5 101t99.5 42t102 -42t44 -101q0 -58 -43.5 -100.5t-102.5 -42.5t-100 41t-41 102zM819 131q0 59 41 101t101 42q59 0 102 -42.5t43 -100.5t-43 -100.5t-102 -42.5t-100.5 41.5t-41.5 101.5zM1520 129q0 59 41.5 101t99.5 42q59 0 102 -42.5t43 -100.5 t-43 -100.5t-102 -42.5q-58 0 -99.5 42t-41.5 101z" />
<glyph unicode="&#x202f;" horiz-adv-x="399" />
<glyph unicode="&#x2039;" horiz-adv-x="565" d="M82 543v108l401 342v-176l-258 -221l258 -221v-174z" />
<glyph unicode="&#x203a;" horiz-adv-x="565" d="M82 201v174l258 221l-258 221v176l401 -342v-108z" />
<glyph unicode="&#x205f;" horiz-adv-x="499" />
<glyph unicode="&#x20ac;" horiz-adv-x="1214" d="M25 487l32 138h97v182h-127l34 135h93v23q0 132 59 243t172 179.5t258 68.5q137 0 246.5 -61t172 -162t71.5 -225h-189q-12 119 -94 198.5t-207 79.5q-133 0 -218 -93.5t-85 -227.5v-23h469l-35 -135h-434v-182h465l-33 -138h-432v-20q0 -134 85 -228t218 -94 q136 0 220.5 93.5t84.5 228.5h187q0 -132 -60 -243.5t-174 -179t-258 -67.5q-145 0 -258 67.5t-172 178.5t-59 244v20h-129z" />
<glyph unicode="&#x2122;" horiz-adv-x="1660" d="M82 1331v103h541v-103h-215v-731h-113v731h-213zM778 600v834h178l228 -619l227 619h168v-834h-111v660l-243 -660h-82l-252 731v-731h-113z" />
<glyph unicode="&#x25fc;" horiz-adv-x="931" d="M0 0v932h932v-932h-932z" />
<glyph unicode="&#xfb01;" horiz-adv-x="1275" d="M43 780v150h201v162q0 69 12 125t31 92.5t47 63t53.5 40t58.5 21.5t55 10t48 2q91 0 139 -25v-151q-53 16 -113 16q-32 0 -53.5 -4.5t-47 -20.5t-39 -54t-13.5 -97v-180h266v-150h-266v-780h-178v780h-201zM856 1280q0 59 39 99t96 40q59 0 99 -40.5t40 -98.5 q0 -57 -39.5 -96t-99.5 -39q-57 0 -96 39t-39 96zM903 0v930h178v-930h-178z" />
<glyph unicode="&#xfb02;" horiz-adv-x="1208" d="M43 780v150h201v162q0 69 12 125t31 92.5t47 63t53.5 40t58.5 21.5t55 10t48 2q91 0 139 -25v-151q-53 16 -113 16q-32 0 -53.5 -4.5t-47 -20.5t-39 -54t-13.5 -97v-180h266v-150h-266v-780h-178v780h-201zM870 0v1434h179v-1434h-179z" />
</font>
</defs>
</svg>
